<svg xmlns="http://www.w3.org/2000/svg" xmlns:xlink="http://www.w3.org/1999/xlink" width="198" height="148" viewBox="0 0 198 148">
    <defs>
        <path id="a" d="M.096.936h111.44v48.412H.095z"/>
    </defs>
    <g fill="none" fill-rule="evenodd">
        <path fill="#E3F1FF" d="M6.176 113.745l92.639 33.32 92.639-33.318v-65.83L98.814 72.73 6.177 47.411z"/>
        <path fill="#8DC1F0" d="M6.176 53.677v27.872l92.33 29.237 92.947-29.392V53.677L98.814 82.07z"/>
        <path fill="#A5C5E9" d="M6.176 47.5v66.247l92.639 33.317V73.73L12.353 47.5z"/>
        <path fill="#659AC9" d="M6.176 53.677v27.872l92.33 29.237.308-.152v-28.72.156z"/>
        <path fill="#BDDAF8" d="M0 45.169v2.64l98.815 32.097 98.816-32.25v-.487L98.815 28.917z"/>
        <path fill="#E3F1FF" d="M0 72.285l98.507 32.326 99.124-31.326V47.324L98.815 72.652 0 45.325z"/>
        <path fill="#A5C5E9" d="M0 72.285l98.507 32.326.308-31.96L0 45.326z"/>
        <path fill="#FF8D76" d="M135.871 71.755v-9.551l-37.057-9.072-37.055 9.072v3.55l-24.702-6.807v-3.94l39.43-11.822-29.644-6.268 15.876-2.693 36.124 6.693 31-6 16 3-32 8 46.731 9.935v9.94z"/>
        <path fill="#FF5736" d="M135.871 62.204v71.54l24.703-8.89V55.85z"/>
        <path fill="#D84022" d="M37.055 124.854l24.705 8.88V61.915l-24.705-6z"/>
        <g transform="translate(42 .064)">
            <mask id="b" fill="#fff">
                <use xlink:href="#a"/>
            </mask>
            <path fill="#5CC6D1" d="M89.615 31.439c-3.397 2.16-9.11 4.785-18.838 5.559 3.55-7.567 10.192-18.53 18.683-18.53 3.55 0 6.022 2.008 6.022 4.633 0 2.16-1.546 5.403-5.867 8.338m-68.553 0c-4.325-2.935-5.868-6.177-5.868-8.338 0-2.625 2.47-4.633 6.022-4.633 8.336 0 14.975 10.963 18.681 18.53-9.725-.774-15.44-3.398-18.835-5.56m72.567-28.41C75.613 7.978 61.822 20.477 55.336 31.593c-6.484-11.116-20.364-23.72-38.29-28.41C5.93.277.096-.424.096 5.622c0 17.6 15.87 43.727 54.623 43.727 38.755 0 61.914-30.722 55.86-43.573-3.403-7.224-9.61-4.763-16.95-2.746" mask="url(#b)"/>
        </g>
    </g>
</svg>
