<svg xmlns="http://www.w3.org/2000/svg" xmlns:xlink="http://www.w3.org/1999/xlink" width="460" height="249" viewBox="0 0 460 249">
    <defs>
        <path id="a" d="M0 248.977h460V0H0z"/>
    </defs>
    <g fill="none" fill-rule="evenodd">
        <path fill="#FFF" d="M133.535 102.407l-2.279-2.26-1.675 1.69 2.52 2.498c1.442 1.43 2.336 2.785 2.685 4.064.383 1.402.175 3.054-.624 4.957l2.343.07c.66-1.947.843-3.676.551-5.188-.357-1.913-1.53-3.856-3.52-5.831"/>
        <path fill="#FFF" d="M133.722 93.333l-.806-.09-9.763 9.846 1.42 1.408 8.197-8.267c.447.58.786 1.282 1.016 2.107.3 1.038.368 2.092.203 3.161l2.32-.242c.104-1.398-.017-2.674-.364-3.827-.383-1.294-1.124-2.66-2.223-4.096M141.969 96.987l9.323-7.375-1.42-1.794-9.322 7.375zM150.251 78.43l-1.971 1.277 9.635 14.852 1.971-1.278-5.063-7.805c2.655-.744 5.162-1.087 7.523-1.029l-.222-2.509c-2.752.155-5.593.707-8.523 1.654l-3.35-5.163zM167.82 86.682c.102-1.363.093-2.68-.026-3.949-.128-1.41-.425-3.053-.892-4.929l-2.257.366c.89 2.895 1.175 5.707.86 8.438l2.315.074z"/>
        <path fill="#FFF" d="M161.546 77.511l5.814-2.889 5.513 11.096 2.068-1.027-5.514-11.096 5.888-2.925-.872-1.755-5.887 2.925-1.493-3.003-2.067 1.027 1.492 3.003-5.813 2.89z"/>
        <path fill="#FFF" d="M173.747 73.739l-1.526 1.606c2.284 2.539 4.372 4.52 6.264 5.947l1.441-2.01c-1.884-1.24-3.944-3.087-6.179-5.543M179.485 69.249l.61 1.818 6.01-2.011c.446 1.379.728 2.434.844 3.168.104.7.093 1.42-.033 2.162-.269 1.59-1.259 3.079-2.972 4.467L186 79.982c.884-.823 1.567-1.606 2.047-2.35a7.982 7.982 0 0 0 1.14-2.697 7.68 7.68 0 0 0 .147-2.374c-.105-1.026-.442-2.442-1.01-4.249l4.98-1.666-.61-1.819-13.208 4.422zM179.21 64.516l.606 1.81 10.893-3.647-.605-1.809zM198.566 74.188l1.995.979c1.156-1.5 1.854-3.167 2.093-5.004.124-.955.115-2.098-.025-3.427-.17-1.61-.643-4.523-1.418-8.74l-2.24.413c.657 3.57 1.088 6.09 1.296 7.56.236 1.66.31 2.93.221 3.809a7.813 7.813 0 0 1-1.922 4.41M207.986 73.864c1.438-1.251 2.56-2.493 3.361-3.726.933-1.43 1.727-3.295 2.381-5.6l-1.915-1.566c-.622 3.27-1.735 5.725-3.34 7.362l-2.457-13.366-2.249.413 2.921 15.887 1.298.596zM218.429 70.905c.506.423.913.856 1.22 1.304.212.317.375.475.49.473.069-.001.236-.058.5-.173 3.065-1.568 5.269-3.79 6.609-6.664.325-.674.579-1.352.767-2.033 1.525 3.75 4.064 6.536 7.616 8.359.263.138.424.208.485.207.11-.002.254-.18.433-.531a6.655 6.655 0 0 1 1.194-1.6 13.516 13.516 0 0 1-5.08-3.25c-1.558-1.587-2.714-3.51-3.47-5.77l5.015-.081 2.677-.004c.096-.001.157-.012.185-.033.026-.028.039-.103.037-.226l-.03-1.723c-.001-.096-.011-.157-.033-.185-.02-.026-.086-.04-.195-.037l-2.676.085-5.415.089c.045-.616.069-1.584.075-2.904.008-.786.065-1.276.17-1.47a1.06 1.06 0 0 0 .116-.442c-.002-.144-.13-.242-.383-.291-.5-.068-1.305-.11-2.412-.125.077.587.122 1.233.133 1.936l.009.492a64.185 64.185 0 0 1-.056 2.843l-4.81.079-2.667.003c-.103.002-.167.014-.194.034-.027.022-.04.087-.038.196l.029 1.723c.002.11.012.178.034.204.02.035.09.05.206.048l2.665-.085 4.574-.075c-.203 1.419-.558 2.662-1.067 3.73-1.29 2.64-3.527 4.607-6.713 5.897M250.325 55.667a.513.513 0 0 0-.232.025c-.088.028-.23.025-.425-.006l-3.048-.496-1.755-.327c-.1-.015-.167-.016-.197 0-.03.023-.057.094-.076.216l-.675 4.41-1.453 8.94-.754 4.386c-.018.11-.017.176.003.204.02.027.081.05.181.066l1.671.27c.101.017.167.018.198.001.038-.02.065-.085.083-.194l.673-4.399 1.89-11.633 2.318.377c-.88 1.755-1.76 3.21-2.64 4.361 1.036 1.803 1.482 3.153 1.336 4.051-.085.52-.279.88-.58 1.08-.312.206-.777.26-1.398.157a4.113 4.113 0 0 1-.292-.057c.17.235.251.688.246 1.36-.009.31-.005.498.013.562.022.116.112.185.267.21.054.01.173.022.358.038 1.92.125 3.038-.794 3.358-2.759.224-1.377-.152-2.864-1.125-4.464.442-.586 1.243-1.852 2.405-3.797.142-.28.31-.479.502-.594.153-.092.241-.206.263-.342.03-.18-.105-.48-.405-.897-.312-.473-.548-.723-.71-.749"/>
        <path fill="#FFF" d="M258.283 64.182c-.613 1.73-1.412 3.19-2.395 4.381-.563-1.436-.885-3.077-.966-4.927l3.361.546zm3.985-6.428l-2.648-.389-4.617-.749-2.656-.474c-.094-.016-.157-.016-.187 0-.03.017-.055.082-.073.196l-.682 4.451c-.479 2.95-1.024 5.174-1.636 6.676a9.757 9.757 0 0 1-3.926 4.661c.405.323.751.732 1.037 1.23.162.281.28.43.354.44.074.013.238-.082.493-.283 1.687-1.298 2.944-2.895 3.771-4.79.67-1.52 1.2-3.287 1.59-5.302-.03 2.476.394 4.71 1.268 6.7-1.317 1.117-2.889 1.953-4.719 2.507.28.371.522.837.73 1.397.123.345.235.527.337.544.067.01.245-.04.534-.153 1.561-.613 2.932-1.415 4.111-2.408a17.494 17.494 0 0 0 2.915 3.414c.212.188.353.286.42.297.115.02.261-.134.44-.458.291-.52.633-.964 1.025-1.33-1.359-1.018-2.445-2.156-3.259-3.418 1.326-1.46 2.418-3.278 3.277-5.453.158-.376.32-.623.484-.742.142-.109.221-.21.236-.305.025-.148-.138-.469-.488-.962-.28-.489-.509-.748-.683-.776-.04-.007-.155.01-.34.05-.115.021-.315.01-.598-.037l-5.325-.865.483-2.976 5.367.872 2.634.47c.15.024.235-.032.256-.167l.26-1.599c.017-.102.017-.167.001-.197s-.078-.055-.186-.072zM277.571 63.548c.227 1.194.318 2.48.274 3.857l1.487-.009c-.013-1.448-.126-2.71-.34-3.793l-1.42-.055zM281.603 63.819l-1.409-.028c.197 1.068.291 2.304.282 3.708l1.476-.046a20.607 20.607 0 0 0-.35-3.634M274.285 63.636c-.186-.264-.488-.467-.91-.607-.362-.122-.687-.145-.973-.068-.342.095-.72.367-1.139.82-2.057 2.237-4.408 4.557-7.052 6.96l1.657 1.734a176.453 176.453 0 0 0 6.27-6.336c.141-.147.297-.19.466-.135a.45.45 0 0 1 .324.358c1.375 5.51 2.513 9.847 3.413 13.012l2.412-.868c-1.265-3.95-2.6-8.535-4.009-13.753-.138-.515-.29-.888-.459-1.117M291.165 72.976c-2.499.611-5.16.931-7.982.958l.385 2.222a47.06 47.06 0 0 0 6.343-.688l-4.58 9.361 2.119 1.037 5.419-11.075c1.813-.482 3.687-1.164 5.624-2.043l-1.362-2.139c-1.655 1.002-3.644 1.791-5.966 2.367M305.07 75.086a17.123 17.123 0 0 1-4.018 3.056c-1.619.885-3.242 1.465-4.87 1.74l.88 2.023c2.412-.465 4.703-1.428 6.872-2.89l4.614 2.914c-1.41 1.512-2.81 2.714-4.206 3.603-.467-1.192-1.14-2.503-2.017-3.93l-1.943.713c.94 1.548 1.595 2.96 1.968 4.24-2.589 1.091-5.557 1.27-8.905.538l.361 2.291c3.315.54 6.188.39 8.62-.452 2.853-.996 5.811-3.207 8.873-6.635l-.129-.968-5.576-3.52c.261-.209.646-.532 1.158-.969l-1.683-1.754zM325.305 91.594l-9.658-7.858-4.997 6.141 1.837 1.495 3.748-4.606 5.872 4.777c-2.115 2.6-3.993 4.372-5.637 5.32-1.062.624-2.121.992-3.174 1.105-1.5.164-3.236-.139-5.211-.908l.116 2.343c3.58 1.298 6.792 1.105 9.637-.582 1.018-.6 2.045-1.39 3.08-2.373 1.225-1.146 2.687-2.764 4.387-4.854M330.664 109.395l1.637-1.598-8.304-8.506-1.637 1.597zM164.482 119.926a20.55 20.55 0 0 0-3.249-1.685l-.827 1.2c1.01.41 2.101 1 3.275 1.767l.801-1.282zM158.836 121.535c1.126.456 2.256 1.077 3.39 1.86l.829-1.28c-1.227-.778-2.35-1.368-3.37-1.77l-.85 1.19z"/>
        <path fill="#FFF" d="M155.032 124.94c.144 1.539.717 2.936 1.72 4.19 2.586 3.24 6.08 3.407 10.481.503l-.964-2.078c-3.538 2.319-6.185 2.38-7.938.184-1.779-2.228-2.042-4.814-.788-7.758.398-.948 1.16-1.89 2.287-2.823l-1.336-1.56a900.259 900.259 0 0 0-10.214 9.286l1.45 1.52a645.046 645.046 0 0 0 5.645-5.637l.706-.957.121.086-.535.94c-.542 1.404-.753 2.772-.635 4.104M178.616 114.918l-2.419.122c1.292 3.55.757 6.025-1.607 7.427-.748.443-1.397.608-1.947.498-.593-.117-1.13-.58-1.613-1.394-.247-.417-2.36-4.219-6.343-11.406l-2.003 1.188c.968 1.7 2.205 3.887 3.712 6.563 1.52 2.7 2.42 4.284 2.7 4.755.83 1.4 1.732 2.24 2.708 2.52 1.033.293 2.34-.028 3.922-.966 3.212-1.904 4.175-5.006 2.89-9.307M194.089 106.593c-1.89-2.414-3.91-4.396-6.062-5.947l-1.472 1.431c2.14 1.504 4.1 3.548 5.884 6.133l1.65-1.617zM187.655 115.555c-.315.131-.938.29-1.868.475l1.185 1.762a13.888 13.888 0 0 0 2.123-.69c.758-.315 1.294-.727 1.61-1.235.331-.52.448-1.203.351-2.043-.156-1.43-.909-3.776-2.26-7.036-.544-1.313-1.17-2.174-1.882-2.584-.668-.38-1.464-.38-2.386.001-.234.097-.747.325-1.538.682-.146-.9-.38-2.166-.706-3.792l-2.106.572c.32 1.288.61 2.686.872 4.192-.794.387-2.065 1.003-3.81 1.844l.826 1.78a240.946 240.946 0 0 1 3.275-1.769 59.17 59.17 0 0 1 .568 11.522l2.183-.06c.165-3.748-.098-7.892-.789-12.432.602-.3 1.142-.55 1.623-.75.346-.143.652-.122.915.066.344.242.712.837 1.105 1.784 1.194 2.881 1.83 4.952 1.91 6.214.026.367-.034.651-.18.852-.163.215-.502.43-1.02.645M206.12 94.835c1.565 1.218 3.423 2.17 5.574 2.86-.312.077-1.018.223-2.119.44l-1.75.346-.082-.412c-.093-.469-.112-.779-.059-.929a.78.78 0 0 0 .04-.437c-.027-.134-.146-.19-.358-.17-.706.064-1.406.154-2.1.27.208.558.382 1.196.524 1.914l.032.161-3.5.693c1.55-1.429 2.816-3.007 3.798-4.736zm-1.937 10.13l-.25-1.259 7.537-1.492.25 1.258-7.537 1.492zm9.112-.132c-.518.695-1.228 1.477-2.129 2.345-.872-.392-1.606-.895-2.2-1.509l2.021-.4 2.308-.436zm-8.124 5.121l-.674-3.4 2.244-.445c.795.916 1.656 1.66 2.584 2.228a96.267 96.267 0 0 1-4.154 1.617zm-1.77-8.945l7.535-1.49.227 1.146-7.536 1.491-.227-1.147zm-5.202.768c.218.327.384.48.498.455.053-.009.201-.087.445-.234a22.483 22.483 0 0 0 1.956-1.37l.452 2.18 1.551 7.838-.566.154c-.63.194-1.357.393-2.18.598.275.761.537 1.4.786 1.916.108.194.212.281.313.261.094-.018.203-.082.328-.19.154-.135.406-.273.755-.41 1.81-.652 4.014-1.524 6.613-2.617.291-.114.461-.207.51-.279.047-.078.042-.294-.013-.645a7.2 7.2 0 0 1-.079-.926c1.807 1.03 4.335 1.62 7.586 1.771.232.01.388.007.47-.008.153-.03.262-.238.326-.62.112-.628.278-1.16.5-1.593-2.302.065-4.083-.026-5.344-.27.498-.475 1.186-1.19 2.064-2.144.192-.227.386-.394.58-.502.2-.088.285-.2.26-.334-.022-.1-.127-.195-.319-.283-.496-.214-1.08-.44-1.755-.676a31.46 31.46 0 0 1-.3-1.415l-.532-2.686-.318-1.715c.907.253 1.801.435 2.68.546.244.036.416.043.516.024.115-.023.203-.225.267-.607a4.801 4.801 0 0 1 .5-1.604 20.643 20.643 0 0 1-5.15-.915c-1.767-.55-3.278-1.247-4.533-2.093l.063-.055c.118-.107.17-.2.153-.28-.019-.102-.152-.155-.397-.163-.7-.043-1.447-.03-2.242.036a4.629 4.629 0 0 1-.608 1.364c-1.609 2.577-3.918 4.683-6.926 6.317.414.294.778.686 1.09 1.174zM237.266 94.874a20.41 20.41 0 0 0-1.542-3.317l-1.387.463c.549.942 1.053 2.076 1.513 3.401l1.416-.547zM227.56 93.558c-.806.014-1.374.396-1.703 1.146-1.43 3.313-2.833 6.177-4.208 8.594l1.89 1.425a96.937 96.937 0 0 0 3.637-7.774c.157-.378.336-.57.534-.573.163-.003.355.175.573.535a79.398 79.398 0 0 0 3.693 5.57c.7.973 2.072 2.736 4.119 5.287l1.624-2.212a48.331 48.331 0 0 1-4.266-4.905c-.768-1.02-2.18-3.082-4.237-6.187-.412-.615-.965-.918-1.656-.906M231.794 92.718a17.655 17.655 0 0 1 1.546 3.545l1.437-.526c-.494-1.367-1.023-2.52-1.585-3.462l-1.398.443zM245.456 92.109l-1.097 1.539c1.06.362 2.138.808 3.236 1.335 1.276.623 2.29 1.213 3.036 1.772l1.367-1.758c-.78-.474-1.747-.972-2.9-1.493-1.324-.596-2.538-1.061-3.642-1.395M242.145 104.996c.194-.483.647-1.025 1.357-1.626 1.376-1.14 2.873-1.59 4.492-1.352.845.124 1.478.42 1.9.89.476.526.65 1.216.525 2.068-.198 1.353-.95 2.249-2.258 2.685-1.44.487-3.49.535-6.149.146l-.254-.04.43 2.096c3.094.392 5.435.31 7.022-.244.94-.325 1.677-.766 2.215-1.323.636-.66 1.034-1.538 1.196-2.634.208-1.421-.022-2.591-.688-3.512-.742-1.02-1.954-1.655-3.64-1.902-1.846-.271-3.56.224-5.14 1.485l-.833.872.474-1.184c.371-1.542.865-3.401 1.481-5.577l-2.04-.58a554.078 554.078 0 0 0-2.096 9.053l2.006.679zM262.065 99.16c-.92-.203-1.986-.46-3.2-.771l-.416 1.697c1.524.304 2.55.515 3.07.633-.043.115-.147.394-.31.837-.175.497-.337.944-.488 1.34-.474.45-2.291 2.123-5.447 5.014l1.103 1.929c.66-.714 1.602-1.722 2.827-3.024l.765-1.078.079.025-.584 1.18a127.589 127.589 0 0 0-1.998 5.737l1.964.63 1.743-5.42.805-2.498c1.616-1.253 2.863-2.127 3.74-2.621 1.222-.691 2.183-.924 2.886-.698.274.088.433.268.475.54.05.332-.055.905-.317 1.719-.255.788-.694 1.964-1.32 3.53a64.15 64.15 0 0 0-1.315 3.617c-.29.905-.334 1.63-.129 2.178.226.59.767 1.023 1.62 1.297.82.264 1.548.232 2.185-.095.78-.395 1.635-1.334 2.565-2.816l-1.34-1.66c-1.004 1.955-1.862 2.817-2.579 2.587-.384-.123-.482-.48-.293-1.065.185-.572.61-1.692 1.276-3.36.616-1.496 1.1-2.784 1.447-3.865.375-1.165.457-2.084.241-2.756-.219-.725-.805-1.241-1.755-1.546-.716-.23-1.622-.126-2.718.31-.947.379-2.147 1.063-3.601 2.053l-.584.642-.072-.045.428-.693.268-.56c.33-.36.743-.683 1.238-.97a.365.365 0 0 0 .178-.223c.027-.084.01-.186-.052-.307l-.471-.81c.12-.333.29-.782.507-1.343.338-.87.6-1.55.786-2.042l-1.995-.664a644.31 644.31 0 0 1-1.212 3.435M281.094 120.433c-1.211-.65-1.61-1.359-1.198-2.125.444-.824 1.388-.848 2.834-.07.517.28.927.605 1.23.978l-.277.561c-.02.051-.036.09-.05.113-.53.987-1.377 1.168-2.54.543m1.97 2.248c.927-.106 1.63-.602 2.105-1.487l.248-.46c.542.81.997 1.956 1.365 3.435l1.977-1.183a14.976 14.976 0 0 0-2.325-4.14c.502-1.237 1.31-2.89 2.426-4.962l-1.807-.972c-1.1 2.072-1.851 3.597-2.254 4.576a7.609 7.609 0 0 0-1.322-.874c-.993-.535-1.94-.772-2.833-.71-1.108.08-1.913.59-2.42 1.528-.433.807-.522 1.57-.266 2.291.306.848 1.06 1.596 2.264 2.243 1.054.568 2.002.806 2.843.715M279.316 107.072l.875.494a96.4 96.4 0 0 0 2.016 1.038c-2.063 2.129-4.49 4.099-7.282 5.91l1.36 1.782c2.907-2.07 5.532-4.322 7.876-6.756.763.356 1.77.793 3.021 1.31l.84-1.644a45.842 45.842 0 0 1-2.56-1.064 85.592 85.592 0 0 0 2.038-2.361l-1.837-1.327a41.271 41.271 0 0 1-2.185 2.762c-.946-.48-1.64-.838-2.088-1.078a35.61 35.61 0 0 1-1.245-.693l-.829 1.627zM290.08 109.882l-1.656 1.043c1.434 1.518 2.516 3.07 3.246 4.66l1.842-1.13c-.76-1.427-1.906-2.95-3.432-4.573M296.533 123.68c.595-.89 1.441-2.029 2.536-3.42l.952-1.21c.241-.306.567-.702.977-1.189a71.55 71.55 0 0 0 1.182-1.419l-1.796-1.414-2.523 3.17c-1.266 1.605-2.31 3.02-3.134 4.243-1.275 1.928-2.004 3.477-2.185 4.648-.174 1.16.192 2.098 1.1 2.813 1.386 1.091 3.418.49 6.096-1.806l-.644-2.1c-1.214 1.046-2.095 1.705-2.642 1.98-.519.271-.955.266-1.31-.013-.284-.224-.369-.59-.255-1.1.156-.706.704-1.767 1.646-3.184M308.122 122.624l-1.956-.85c-.322 3.394-1.767 7.095-4.333 11.107l2.067 1.17c2.546-4.061 3.953-7.87 4.222-11.427"/>
        <path fill="#FFF" d="M348.106 74.15c-14.02-14.27-30.129-25.751-47.875-34.127-17.688-8.348-36.596-13.417-56.195-15.065a169.702 169.702 0 0 0-4.505-.32l-.07-.007-.79-.086c-1.518-.172-2.574-.64-3.326-1.471-.86-.953-1.18-2.223-1.398-3.835-.365-2.712 1.52-5.652 2.678-7.165.168-.22.305-.436.421-.664.626-1.233 1.906-4.444.264-7.63-2.01-3.9-7.48-3.78-7.535-3.777h-.078c-.056-.008-5.543-.135-7.56 3.778-1.64 3.185-.362 6.396.264 7.629.116.228.254.445.42.662 1.158 1.514 3.044 4.454 2.68 7.166-.219 1.632-.546 2.913-1.427 3.867-.75.812-1.797 1.27-3.295 1.44l-.744.082c-.228.025-.479.052-.74.083l-.064.005c-1.27.082-2.56.18-3.839.292-19.493 1.708-38.294 6.8-55.88 15.137-17.645 8.365-33.667 19.807-47.619 34.007-15.82 16.103-28.097 34.81-36.485 55.6a2.45 2.45 0 0 0 .245 2.326 2.455 2.455 0 0 0 2.063 1.097 2.46 2.46 0 0 0 2.295-1.531c8.147-20.088 20.02-38.152 35.285-53.69C145.933 46.772 186.67 29.599 230 29.599c43.33 0 84.066 17.173 114.703 48.354 15.266 15.538 27.138 33.602 35.285 53.69a2.46 2.46 0 0 0 2.295 1.53c.841 0 1.593-.4 2.063-1.096a2.45 2.45 0 0 0 .245-2.325c-8.388-20.791-20.664-39.498-36.485-55.601M44.986 188.223H2.276A2.277 2.277 0 0 0 0 190.498a2.278 2.278 0 0 0 2.275 2.277h42.711a2.278 2.278 0 0 0 2.275-2.276 2.278 2.278 0 0 0-2.275-2.276M44.986 199.226H27.782a2.277 2.277 0 0 0-2.275 2.275 2.278 2.278 0 0 0 2.275 2.277h17.204a2.278 2.278 0 0 0 2.275-2.277 2.277 2.277 0 0 0-2.275-2.275M457.725 188.223h-42.711a2.277 2.277 0 0 0-2.275 2.275 2.278 2.278 0 0 0 2.275 2.277h42.71A2.278 2.278 0 0 0 460 190.5a2.278 2.278 0 0 0-2.275-2.276M432.218 199.226h-17.204a2.277 2.277 0 0 0-2.275 2.275 2.278 2.278 0 0 0 2.275 2.277h17.204a2.278 2.278 0 0 0 2.275-2.277 2.277 2.277 0 0 0-2.275-2.275"/>
        <path fill="#232E48" d="M103.132 150.88v42.148h5.593V170.88c6.267 1.953 11.72 4.518 16.36 7.692l2.81-5.299c-5.7-3.256-12.09-5.836-19.17-7.742V150.88h-5.593z"/>
        <path fill="#232E48" d="M103.632 192.529h4.593V170.2l.648.202c6.079 1.895 11.469 4.397 16.03 7.444l2.323-4.38c-5.532-3.106-11.796-5.613-18.631-7.453l-.37-.1V151.38h-4.593v41.149zm5.593 1h-6.593v-43.15h6.593v14.77c6.947 1.9 13.31 4.485 18.918 7.69l.42.24-3.297 6.222-.462-.315c-4.417-3.022-9.655-5.52-15.58-7.423v21.966zM158.402 171.125v-18.95h-5.592v18.51c0 4.085-.512 7.317-1.538 9.695-1.01 2.376-2.67 4.24-4.982 5.591-2.1 1.238-5.128 2.256-9.084 3.053l2.637 4.395c6.17-1.302 10.64-3.345 13.407-6.129 3.435-3.418 5.152-8.808 5.152-16.165"/>
        <path fill="#232E48" d="M137.997 189.37l2.092 3.486c5.866-1.28 10.174-3.27 12.806-5.918 3.324-3.306 5.007-8.627 5.007-15.813v-18.45h-4.592v18.01c0 4.136-.53 7.464-1.579 9.893-1.046 2.465-2.794 4.426-5.189 5.825-2.01 1.187-4.884 2.184-8.545 2.968zm1.602 4.612l-3.186-5.308.694-.14c3.883-.782 6.887-1.79 8.93-2.993 2.206-1.29 3.813-3.091 4.775-5.357.995-2.305 1.498-5.501 1.498-9.5v-19.01h6.592v19.45c0 7.464-1.783 13.02-5.3 16.52-2.822 2.84-7.417 4.949-13.655 6.265l-.348.073z"/>
        <mask id="b" fill="#fff">
            <use xlink:href="#a"/>
        </mask>
        <path fill="#232E48" d="M134.495 177.131h5.544v-24.664h-5.544z" mask="url(#b)"/>
        <path fill="#232E48" d="M134.995 176.631h4.544v-23.664h-4.544v23.664zm-1 1h6.544v-25.664h-6.544v25.664zM175.749 173.37c-1.106-4.312-2.475-8.18-4.103-11.6l-4.493 1.614c1.514 3.158 2.832 7.056 3.956 11.697l4.64-1.71z" mask="url(#b)"/>
        <path fill="#232E48" d="M167.84 163.668c1.365 2.96 2.582 6.57 3.622 10.75l3.69-1.36c-1.03-3.919-2.294-7.502-3.764-10.663l-3.548 1.273zm2.916 12.075l-.133-.545c-1.11-4.586-2.43-8.488-3.921-11.599l-.24-.499 5.44-1.953.196.41c1.636 3.433 3.026 7.366 4.136 11.69l.112.437-5.59 2.06zM184.809 171.125c-.977-4.462-2.124-8.197-3.443-11.21l-4.664 1.417c1.302 2.784 2.45 6.585 3.443 11.404l4.664-1.611z" mask="url(#b)"/>
        <path fill="#232E48" d="M177.393 161.644c1.166 2.643 2.216 6.146 3.125 10.434l3.706-1.281c-.9-4.023-1.956-7.475-3.141-10.273l-3.69 1.12zm2.377 11.75l-.114-.558c-.982-4.758-2.128-8.558-3.408-11.293l-.244-.522 5.64-1.713.18.407c1.325 3.026 2.494 6.828 3.473 11.303l.096.434-5.623 1.942z" mask="url(#b)"/>
        <path fill="#232E48" d="M190.499 182.236c1.384-2.296 2.482-4.958 3.297-7.986.847-3.06 1.555-7.122 2.124-12.186l-5.567-1.1c-.457 8.402-1.874 14.622-4.25 18.659-2.686 4.542-7.187 7.96-13.504 10.256l3.248 3.957c3.435-1.417 6.219-2.923 8.351-4.52 2.475-1.854 4.574-4.215 6.301-7.08" mask="url(#b)"/>
        <path fill="#232E48" d="M173.429 190.102l2.568 3.129c3.229-1.355 5.886-2.805 7.902-4.315 2.41-1.806 4.486-4.141 6.172-6.938 1.353-2.244 2.444-4.889 3.243-7.858.81-2.931 1.502-6.849 2.057-11.655l-4.551-.898c-.493 8.155-1.934 14.313-4.286 18.309-2.64 4.464-7.047 7.902-13.105 10.226zm2.267 4.337l-3.932-4.789.664-.241c6.175-2.244 10.632-5.621 13.245-10.041 2.324-3.949 3.73-10.15 4.18-18.43l.032-.574 6.583 1.299-.051.457c-.57 5.067-1.29 9.193-2.14 12.263-.821 3.057-1.95 5.786-3.35 8.111-1.752 2.908-3.915 5.338-6.43 7.223-2.153 1.613-5 3.154-8.46 4.58l-.341.142zM235.856 155.618h-15.41c.227-.554.733-1.954 1.513-4.2l-5.763-.904c-1.806 7.879-5.672 14.75-11.6 20.61l4.202 3.1c3.956-4.003 7.203-8.668 9.744-13.991h12.404c-1.189 7.114-3.524 12.984-7.008 17.607-3.826 5.063-9.287 8.963-16.386 11.697l3.248 4.054c6.984-2.832 12.397-6.512 16.24-11.037 4.982-5.83 8.35-14.206 10.11-25.13l-1.294-1.806z" mask="url(#b)"/>
        <path fill="#232E48" d="M208.366 189.753l2.59 3.232c6.712-2.769 11.993-6.387 15.702-10.755 4.867-5.695 8.22-13.998 9.965-24.683l-1.025-1.43H219.7l.283-.69c.205-.498.645-1.71 1.308-3.609l-4.714-.74c-1.82 7.568-5.592 14.287-11.217 19.988l3.385 2.5c3.763-3.88 6.905-8.436 9.345-13.548l.135-.286h13.312l-.098.583c-1.196 7.162-3.586 13.16-7.102 17.825-3.75 4.965-9.122 8.87-15.97 11.613zm2.276 4.44l-3.908-4.877.638-.247c6.975-2.686 12.415-6.566 16.167-11.532 3.322-4.409 5.614-10.06 6.813-16.805h-11.497c-2.534 5.235-5.797 9.891-9.702 13.844l-.304.308-5.019-3.704.415-.41c5.83-5.767 9.687-12.62 11.464-20.369l.104-.455 6.816 1.07-.197.565a191.135 191.135 0 0 1-1.257 3.536h14.937l1.564 2.183-.034.203c-1.765 10.968-5.205 19.505-10.223 25.375-3.876 4.565-9.406 8.326-16.432 11.175l-.345.14zM247.634 158.718h22.856c-.211 7.994-1.831 14.311-4.86 18.95-3.223 4.917-8.62 8.654-16.19 11.21l3.102 4.395c5.78-2.117 10.305-4.656 13.577-7.619 3.534-3.174 6.13-7.26 7.79-12.259 1.662-5.014 2.557-11.486 2.687-19.414h-28.962v4.737z" mask="url(#b)"/>
        <path fill="#232E48" d="M250.232 189.133l2.497 3.537c5.523-2.058 9.913-4.543 13.054-7.387 3.453-3.102 6.027-7.154 7.651-12.046 1.602-4.834 2.493-11.143 2.652-18.756h-27.953v3.737h22.87l-.013.514c-.214 8.05-1.876 14.514-4.94 19.21-3.182 4.852-8.5 8.615-15.818 11.191zm2.122 4.741l-3.709-5.257.635-.213c7.426-2.507 12.786-6.21 15.932-11.01 2.897-4.439 4.5-10.552 4.762-18.176h-22.84v-5.737h29.97l-.009.507c-.13 7.944-1.043 14.526-2.712 19.564-1.679 5.06-4.348 9.256-7.93 12.474-3.303 2.991-7.926 5.587-13.74 7.716l-.359.132zM289.082 174.469h28.304v-5.445h-28.304z" mask="url(#b)"/>
        <path fill="#232E48" d="M289.582 173.969h27.304v-4.445h-27.304v4.445zm-1 1h29.304v-6.445h-29.304v6.445zM336.099 150.88h-5.592v42.148h5.592V170.88c6.269 1.953 11.722 4.518 16.362 7.692l2.808-5.299c-5.697-3.256-12.088-5.836-19.17-7.742V150.88z" mask="url(#b)"/>
        <path fill="#232E48" d="M331.007 192.529h4.592V170.2l.648.202c6.077 1.894 11.468 4.397 16.032 7.444l2.32-4.38c-5.53-3.106-11.794-5.613-18.63-7.453l-.37-.1V151.38h-4.592v41.149zm5.592 1h-6.592v-43.15h6.592v14.77c6.948 1.9 13.31 4.485 18.918 7.69l.42.24-3.296 6.222-.462-.315c-4.42-3.023-9.658-5.52-15.58-7.423v21.966zM347.454 148.926l-3.296.903c1.433 2.524 2.62 5.357 3.565 8.498l3.394-1.098c-1.123-3.273-2.344-6.04-3.663-8.303" mask="url(#b)"/>
        <path fill="#232E48" d="M344.904 150.143c1.234 2.271 2.291 4.806 3.147 7.553l2.426-.785c-1.008-2.866-2.104-5.351-3.264-7.401l-2.309.633zm2.486 8.817l-.146-.489c-.93-3.094-2.115-5.918-3.52-8.394l-.318-.56 4.286-1.175.193.332c1.33 2.28 2.576 5.103 3.705 8.393l.165.481-4.365 1.412zM350.312 148.316c1.27 2.263 2.417 4.98 3.442 8.156l3.37-1.147a50.245 50.245 0 0 0-3.565-7.962l-3.248.953z" mask="url(#b)"/>
        <path fill="#232E48" d="M351.049 148.62c1.1 2.056 2.115 4.478 3.023 7.216l2.413-.821a49.955 49.955 0 0 0-3.17-7.06l-2.266.666zm2.387 8.489l-.157-.483c-1.01-3.125-2.155-5.84-3.404-8.065l-.306-.547 4.233-1.243.194.349a50.915 50.915 0 0 1 3.6 8.04l.167.476-4.327 1.473zM137.642 224.6l-13.113 1.782-1.198-7.546 12.407-1.61-.636-4.593-12.503 1.661-1.416-8.498-5.446.586 1.392 8.596-12.332 1.611.684 4.592 12.405-1.588 1.196 7.595-14.847 2.052.758 4.64 14.896-2.028 2.66 16.435 5.447-.733-2.71-16.459 13.015-1.807z" mask="url(#b)"/>
        <path fill="#232E48" d="M120.305 231.29l2.66 16.438 4.454-.6-2.711-16.457 13.029-1.81-.521-3.7-13.104 1.782-1.355-8.537 12.416-1.612-.498-3.6-12.49 1.66-1.418-8.51-4.452.478 1.39 8.584-12.338 1.613.537 3.603 12.4-1.587 1.352 8.578-14.845 2.052.597 3.653 14.897-2.028zm1.829 17.559l-2.661-16.435-14.896 2.026-.918-5.625 14.85-2.053-1.041-6.612-12.41 1.59-.83-5.58 12.325-1.61-1.394-8.609 6.44-.692 1.414 8.486 12.516-1.664.773 5.584-12.396 1.612 1.04 6.554 13.122-1.785.798 5.68-13.003 1.803 2.71 16.462-6.44.868zM158.578 220.74l-1.588-7.594-5.006.929 1.612 7.619-7.864 1.489 1.001 4.616 7.79-1.612 4.714 22.199 5.006-1.051-4.713-22.198 11.404-2.344c-.26 1.367-.846 2.987-1.758 4.859-1.075 2.215-2.336 4.225-3.786 6.032l4.298 2.515c3.42-5.111 5.723-10.361 6.911-15.751l-2.662-2.661-15.359 2.954z" mask="url(#b)"/>
        <path fill="#232E48" d="M154.91 225.596l4.713 22.197 4.027-.845-4.714-22.2 12.63-2.596-.14.734c-.269 1.406-.874 3.083-1.8 4.984a32.613 32.613 0 0 1-3.488 5.672l3.395 1.987c3.171-4.83 5.362-9.848 6.52-14.922l-2.282-2.28-15.582 2.998-1.589-7.598-4.02.746 1.61 7.617-7.86 1.488.787 3.63 7.792-1.612zm3.941 23.381l-4.713-22.199-7.789 1.61-1.214-5.6 7.866-1.49-1.613-7.622 5.992-1.11 1.587 7.591 15.136-2.912 3.043 3.042-.058.268c-1.197 5.425-3.546 10.782-6.984 15.922l-.26.39-5.206-3.044.363-.452a31.362 31.362 0 0 0 3.724-5.937c.73-1.495 1.248-2.835 1.55-3.996l-10.15 2.088 4.711 22.195-5.985 1.256zM200.417 217.542c-3.744-2.898-7.929-5.535-12.552-7.912l-3.345 4.298a59.294 59.294 0 0 1 12.258 8.62l3.639-5.006z" mask="url(#b)"/>
        <path fill="#232E48" d="M185.278 213.767a60.103 60.103 0 0 1 11.422 8.038l3.026-4.163c-3.504-2.673-7.443-5.152-11.72-7.377l-2.728 3.502zm11.576 9.526l-.412-.375a59.105 59.105 0 0 0-12.156-8.547l-.528-.279 3.967-5.096.368.19c4.633 2.382 8.882 5.06 12.63 7.961l.383.297-4.252 5.849zM205.497 230.583c-4.46 6.203-11.307 10.322-20.538 12.356l2.711 5.105c8.71-2.232 15.482-6.107 20.317-11.625 4.74-5.389 7.847-12.699 9.33-21.93l-5.252-2.71c-.976 7.766-3.166 14.034-6.568 18.804" mask="url(#b)"/>
        <path fill="#232E48" d="M185.707 243.282l2.22 4.179c8.388-2.211 15.009-6.035 19.684-11.37 4.591-5.222 7.669-12.394 9.154-21.324l-4.296-2.217c-1.028 7.493-3.235 13.654-6.565 18.323l-.001.002c-4.411 6.133-11.203 10.304-20.196 12.407zm1.706 5.344l-3.204-6.033.643-.142c9.063-1.997 15.873-6.09 20.239-12.16 3.337-4.68 5.516-10.928 6.478-18.574l.089-.71 6.209 3.205-.056.357c-1.492 9.284-4.67 16.747-9.448 22.18-4.88 5.57-11.801 9.534-20.569 11.779l-.381.098zM246.53 211.168c-.618-.456-1.457-.684-2.515-.684-.912 0-1.66.196-2.247.586-.7.473-1.35 1.376-1.953 2.711-2.947 6.61-6.496 13.626-10.647 21.05l5.054 2.662c3.55-6.82 6.667-13.17 9.354-19.048.212-.439.53-.659.952-.659.456 0 .79.188 1.001.562 7.277 11.396 13.13 20.326 17.56 26.79l4.785-3.786c-5.845-7.96-12.332-17.298-19.463-28.01-.7-1.059-1.327-1.783-1.88-2.174" mask="url(#b)"/>
        <path fill="#232E48" d="M244.528 217.287c.638 0 1.134.282 1.436.815 7.067 11.066 12.867 19.92 17.234 26.31l3.987-3.152c-5.745-7.842-12.199-17.138-19.19-27.64-.663-1.003-1.253-1.69-1.753-2.043l-.009-.006c-.527-.388-1.273-.586-2.218-.586-.807 0-1.469.169-1.969.502-.617.416-1.214 1.258-1.775 2.5-2.88 6.46-6.385 13.404-10.417 20.64l4.156 2.19c3.436-6.62 6.5-12.867 9.111-18.58.38-.787.974-.95 1.407-.95zm18.45 28.575l-.303-.442c-4.406-6.43-10.317-15.447-17.568-26.802-.136-.24-.305-.331-.579-.331-.166 0-.342.046-.502.376-2.672 5.846-5.822 12.262-9.36 19.06l-.232.448-5.953-3.136.25-.447c4.123-7.373 7.698-14.442 10.627-21.01.65-1.437 1.346-2.392 2.131-2.921.67-.446 1.518-.672 2.526-.672 1.16 0 2.106.262 2.808.779.61.43 1.265 1.184 2.005 2.303 7.097 10.662 13.641 20.079 19.45 27.99l.284.388-5.584 4.417zM258.203 209.435c.618-.7 1.425-1.051 2.418-1.051.862 0 1.595.278 2.197.83.701.619 1.051 1.425 1.051 2.418 0 .864-.269 1.596-.806 2.199-.635.7-1.449 1.049-2.442 1.049-.862 0-1.595-.268-2.198-.805-.7-.635-1.05-1.45-1.05-2.443 0-.862.276-1.594.83-2.197m2.418 7.912c1.465 0 2.743-.497 3.834-1.49 1.253-1.123 1.88-2.531 1.88-4.225 0-1.465-.488-2.735-1.465-3.809-1.14-1.253-2.557-1.88-4.249-1.88-1.465 0-2.735.488-3.81 1.465-1.253 1.123-1.88 2.532-1.88 4.224 0 1.465.49 2.743 1.465 3.834 1.123 1.254 2.532 1.881 4.225 1.881" mask="url(#b)"/>
        <path fill="#232E48" d="M260.621 208.884c-.85 0-1.52.288-2.043.882l-.007.007c-.47.511-.698 1.12-.698 1.86 0 .853.29 1.53.886 2.071.51.454 1.12.676 1.862.676.854 0 1.531-.29 2.072-.886.454-.508.676-1.119.676-1.862 0-.85-.288-1.519-.882-2.043-.519-.476-1.128-.705-1.866-.705m0 6.496c-.984 0-1.836-.313-2.53-.933-.81-.732-1.218-1.679-1.218-2.815 0-.986.322-1.838.958-2.532.715-.807 1.653-1.216 2.79-1.216.986 0 1.84.323 2.535.962.803.708 1.213 1.647 1.213 2.786 0 .985-.313 1.837-.933 2.531-.734.81-1.68 1.217-2.815 1.217m0-8.937c-1.35 0-2.485.436-3.474 1.335-1.156 1.036-1.716 2.296-1.716 3.854 0 1.35.437 2.494 1.337 3.5 1.034 1.154 2.294 1.715 3.853 1.715 1.35 0 2.492-.445 3.497-1.36 1.156-1.037 1.717-2.296 1.717-3.855 0-1.349-.437-2.485-1.335-3.474-1.05-1.154-2.319-1.715-3.879-1.715m0 11.404c-1.834 0-3.38-.689-4.597-2.047-1.057-1.182-1.593-2.584-1.593-4.168 0-1.833.688-3.379 2.046-4.597 1.163-1.056 2.557-1.592 4.144-1.592 1.831 0 3.386.687 4.62 2.043 1.058 1.165 1.594 2.56 1.594 4.146 0 1.833-.689 3.38-2.046 4.597-1.179 1.073-2.582 1.618-4.168 1.618M280.336 229.484h28.303v-5.446h-28.303z" mask="url(#b)"/>
        <path fill="#232E48" d="M280.836 228.984h27.303v-4.446h-27.303v4.446zm-1 1h29.303v-6.446h-29.303v6.446zM339.807 230.583c-4.461 6.203-11.307 10.322-20.537 12.356l2.71 5.105c8.71-2.232 15.483-6.107 20.318-11.625 4.738-5.389 7.847-12.699 9.328-21.93l-5.25-2.71c-.976 7.766-3.167 14.034-6.57 18.804" mask="url(#b)"/>
        <path fill="#232E48" d="M320.018 243.282l2.22 4.179c8.388-2.211 15.009-6.035 19.684-11.37 4.59-5.223 7.669-12.396 9.153-21.324l-4.295-2.217c-1.028 7.492-3.235 13.653-6.566 18.323l-.001.002c-4.41 6.133-11.203 10.304-20.195 12.407zm1.706 5.344l-3.204-6.033.643-.142c9.062-1.997 15.872-6.09 20.238-12.16 3.338-4.68 5.518-10.93 6.479-18.574l.089-.71 6.208 3.205-.056.357c-1.491 9.283-4.67 16.745-9.447 22.18-4.88 5.57-11.801 9.534-20.57 11.779l-.38.098zM334.728 217.542c-3.745-2.898-7.93-5.535-12.553-7.912l-3.345 4.298a59.294 59.294 0 0 1 12.259 8.62l3.639-5.006z" mask="url(#b)"/>
        <path fill="#232E48" d="M319.589 213.767a60.103 60.103 0 0 1 11.422 8.038l3.026-4.163c-3.504-2.673-7.443-5.152-11.721-7.377l-2.727 3.502zm11.576 9.526l-.412-.375a59.105 59.105 0 0 0-12.156-8.547l-.528-.279 3.967-5.096.368.19c4.633 2.382 8.882 5.06 12.629 7.961l.384.297-4.252 5.849z" mask="url(#b)"/>
    </g>
</svg>
