<?xml version="1.0" encoding="utf-8"?>
<!-- Generator: Adobe Illustrator 22.0.1, SVG Export Plug-In . SVG Version: 6.00 Build 0)  -->
<svg version="1.1" id="レイヤー_1" xmlns="http://www.w3.org/2000/svg" xmlns:xlink="http://www.w3.org/1999/xlink" x="0px"
	 y="0px" width="21.3px" height="20.8px" viewBox="0 0 21.3 20.8" style="enable-background:new 0 0 21.3 20.8;"
	 xml:space="preserve">
<style type="text/css">
	.st0{fill:#FFFFFF;}
</style>
<path class="st0" d="M10.7,20.4c-5.5,0-10-4.5-10-10s4.5-10,10-10s10,4.5,10,10S16.2,20.4,10.7,20.4z M11.7,5.4c0-0.6-0.4-1-1-1
	c-0.6,0-1,0.4-1,1c0,0.6,0.4,1,1,1C11.3,6.4,11.7,6.1,11.7,5.4z M12.7,15.4v-0.8l-1-0.1c-0.2,0-0.3-0.1-0.3-0.3V7.4H9L8.8,8.2
	l0.9,0.3c0.2,0,0.2,0.2,0.2,0.3v5.3c0,0.2,0,0.3-0.3,0.3l-1,0.1v0.9H12.7L12.7,15.4z"/>
</svg>
