<svg xmlns="http://www.w3.org/2000/svg" xmlns:xlink="http://www.w3.org/1999/xlink" width="120" height="120" viewBox="0 0 120 120">
    <defs>
        <path id="a" d="M.257.577h1.254v2.28H.257z"/>
    </defs>
    <g fill="none" fill-rule="evenodd">
        <path fill="#232E48" d="M0 0h120v120H0z"/>
        <path fill="#FEFEFE" d="M56.716 17.972v1.725l-15.48 41.805-2.58.861h-3.01v3.017h15.91v-3.017h-4.73l-1.29-1.292 4.3-12.068h17.029l4.042 12.068-1.29 1.292h-4.73v3.017h19.35v-3.017h-3.01l-2.58-.861-15.48-43.53h-6.45zm1.893 6.896l7.137 20.686h-14.62l7.483-20.686zM28.277 91.443h63.29v-.493h-63.29zM31.93 81.107v.287l-2.581 6.968-.43.143h-.502v.504h2.652v-.504h-.789l-.215-.214.717-2.012h2.838l.674 2.012-.215.214h-.788v.504h3.225v-.504h-.501l-.431-.143-2.58-7.255h-1.075zm.315 1.148l1.189 3.45h-2.437l1.248-3.45zM39.575 82.871v2.873h1.314c.359-.359.717-.838.717-1.496 0-.838-.717-1.377-2.03-1.377m3.642 6.165c-.658 0-1.136-.216-1.554-.838l-1.374-2.035h-.716v2.335l.12.12h.656v.418h-2.568v-.418h.418l.418-.12V82.99l-.12-.12h-.716v-.418h2.15c1.433 0 2.628.418 2.628 1.616 0 .898-.717 1.556-1.314 1.855l1.433 2.096c.263.383.479.599.836.599h.3v.418h-.597M49.667 83.889v-.743l-.835-.215h-.956v5.567l.12.12h.776v.419h-2.748v-.42h.478l.418-.12v-5.566h-.956l-.836.215v.743h-.477v-1.617l.537.18h4.42l.537-.18v1.617zM59.88 89.009v-.503h.43l.502-.144v-3.16h-3.727v3.16l.143.144h.789v.503h-3.082v-.503h.501l.502-.144v-6.608l-.143-.144h-.86v-.503h3.082v.503h-.43l-.502.144v2.873h3.727v-2.873l-.143-.144h-.789v-.503h3.082v.503h-.502l-.501.144v6.608l.143.144h.86v.503zM66.88 82.751c-1.135.539-1.851 1.676-1.851 2.993 0 1.976 1.373 2.993 3.165 2.993 1.135-.539 1.851-1.676 1.851-2.993 0-1.976-1.373-2.993-3.165-2.993m.716 6.525c-1.671 0-3.583-1.078-3.583-3.412 0-1.975 1.971-3.652 3.464-3.652 1.672 0 3.584 1.078 3.584 3.412 0 1.976-1.971 3.652-3.465 3.652M77.093 83.889v-.743l-.836-.215H75.3v5.567l.12.12h.776v.419H73.45v-.42h.477l.419-.12v-5.566h-.956l-.836.215v.743h-.478v-1.617l.537.18h4.42l.538-.18v1.617zM83.722 89.037h-4.42v-.42h.419l.418-.12v-5.506l-.12-.12h-.717v-.42h4.66v1.318h-.479v-.599l-1.075-.3h-1.313v2.515h1.672l.418-.12v-.479h.477v1.736h-.477v-.538l-.418-.12h-1.672v2.394c.537.3 1.194.36 1.91.36L84.2 87.42l.239.18c-.12.478-.406 1.077-.717 1.437M90.89 89.037h-4.182v-.42h.418l.42-.12v-5.506l-.121-.12h-.717v-.42h2.688v.42h-.478l-.418.12v5.267c.478.24 1.016.36 1.673.36l1.194-1.198.239.18c-.12.478-.405 1.077-.717 1.437M39.374 96.875a.862.862 0 0 0-.627.24.817.817 0 0 0-.245.61.8.8 0 0 0 .246.599c.165.16.37.24.617.24a.848.848 0 0 0 .62-.245.813.813 0 0 0 .249-.607.797.797 0 0 0-.25-.596.843.843 0 0 0-.61-.241m-.012-.302c.343 0 .629.108.857.326.229.218.343.491.343.82 0 .328-.116.6-.346.815-.23.215-.521.322-.872.322-.334 0-.614-.107-.836-.322a1.08 1.08 0 0 1-.335-.81c0-.332.112-.607.337-.825.224-.218.508-.326.852-.326"/>
        <g transform="translate(41.822 95.998)">
            <mask id="b" fill="#fff">
                <use xlink:href="#a"/>
            </mask>
            <path fill="#FEFEFE" d="M.919 1.9l-.242-.147a1.105 1.105 0 0 1-.323-.274.521.521 0 0 1-.097-.31c0-.176.06-.318.182-.427A.682.682 0 0 1 .912.577c.186 0 .356.053.51.157v.361C1.263.942 1.092.864.907.864A.429.429 0 0 0 .65.936a.22.22 0 0 0-.1.186c0 .066.025.128.074.187.049.058.128.12.237.183l.243.144c.271.162.407.369.407.62 0 .178-.06.323-.18.435a.654.654 0 0 1-.465.167.974.974 0 0 1-.599-.202V2.25c.171.218.37.327.596.327.1 0 .183-.028.249-.084a.262.262 0 0 0 .1-.208c0-.136-.099-.265-.293-.386" mask="url(#b)"/>
        </g>
        <path fill="#FEFEFE" d="M45.967 97.887l-.359-.806-.332.806h.69zm-.468-1.296h.224l.996 2.24h-.325l-.297-.66h-.948l-.277.66h-.327l.954-2.24zM49.196 96.604h.397l-.963 1.057 1.2 1.17h-.434l-1.136-1.1v1.1h-.318v-2.227h.318v1.019zM52.229 97.887l-.359-.806-.332.806h.69zm-.468-1.296h.224l.996 2.24h-.325l-.297-.66h-.947l-.278.66h-.327l.954-2.24zM56.764 97.84h-.297v.708h.313c.175 0 .292-.014.354-.041a.33.33 0 0 0 .15-.127.328.328 0 0 0 .056-.185c0-.068-.02-.13-.06-.186a.355.355 0 0 0-.17-.127 1.047 1.047 0 0 0-.346-.041m-.023-.953h-.274v.67h.212c.17 0 .29-.033.361-.098a.323.323 0 0 0 .108-.251c0-.214-.136-.321-.407-.321m.16 1.943h-.752v-2.227h.583c.182 0 .326.025.429.074a.55.55 0 0 1 .235.204c.054.087.08.187.08.3 0 .22-.112.377-.338.471.162.03.292.098.388.2a.527.527 0 0 1 .143.37c0 .114-.03.216-.087.305a.633.633 0 0 1-.257.218.937.937 0 0 1-.424.085M60.202 97.887l-.359-.806-.333.806h.692zm-.468-1.296h.224l.996 2.24h-.325l-.297-.66h-.947l-.278.66h-.327l.954-2.24zM63.316 96.604h.385l-.82 1.049v1.178h-.326v-1.178l-.82-1.049h.383l.595.768zM66.616 96.601h1.857v.284h-.775v1.946h-.32v-1.946h-.762zM70.657 96.875a.86.86 0 0 0-.626.24.814.814 0 0 0-.245.61.8.8 0 0 0 .246.599c.163.16.369.24.616.24a.848.848 0 0 0 .62-.245.813.813 0 0 0 .25-.607.797.797 0 0 0-.25-.596.843.843 0 0 0-.61-.241m-.013-.302c.343 0 .63.108.857.326.229.218.343.491.343.82 0 .328-.115.6-.346.815-.23.215-.52.322-.872.322-.335 0-.613-.107-.836-.322a1.079 1.079 0 0 1-.335-.81c0-.332.112-.607.337-.825.224-.218.509-.326.852-.326M75.848 96.604h.317l-.898 2.236h-.07l-.726-1.81-.734 1.81h-.069l-.895-2.236h.32l.613 1.535.616-1.535h.3l.62 1.535zM77.324 96.604h1.26v.284h-.943v.68h.91v.284h-.91v.692h.972v.284h-1.29zM80.353 96.875h-.096v.703h.12c.162 0 .272-.014.333-.042a.309.309 0 0 0 .14-.125.37.37 0 0 0-.006-.38.301.301 0 0 0-.156-.121 1.148 1.148 0 0 0-.335-.035m-.414 1.956v-2.227h.556c.225 0 .404.056.535.167a.562.562 0 0 1 .199.453c0 .13-.033.242-.097.337a.578.578 0 0 1-.279.211c.071.047.141.111.209.192.068.08.162.221.286.422.077.126.14.221.186.286l.118.16h-.38l-.095-.147a.58.58 0 0 0-.02-.028l-.062-.088-.098-.162-.106-.174a1.788 1.788 0 0 0-.181-.219.697.697 0 0 0-.148-.117.505.505 0 0 0-.222-.035h-.083v.97h-.318"/>
        <path fill="#A6A8AB" d="M60.697 61.89c0 1.074.206 1.92.617 2.538.412.62 1.03.93 1.853.93 1.112 0 2.213-.3 3.304-.898 1.091-.598 2.141-1.383 3.15-2.353a22.205 22.205 0 0 0 2.81-3.31 27.921 27.921 0 0 0 2.254-3.838 25.385 25.385 0 0 0 1.513-3.87c.37-1.257.556-2.402.556-3.434 0-.866-.216-1.599-.648-2.197-.433-.598-1.103-.898-2.008-.898-.864 0-1.79.279-2.778.836-.988.557-1.987 1.29-2.996 2.197a22.372 22.372 0 0 0-2.871 3.157 32.905 32.905 0 0 0-2.44 3.714 20.815 20.815 0 0 0-1.699 3.837c-.41 1.28-.617 2.476-.617 3.59M91.76 49.945c-.988 1.114-2.099 2.002-3.334 2.662-1.234.66-2.45.99-3.643.99-1.154 0-2.142-.257-2.965-.774-.824-.516-1.462-1.124-1.915-1.826h-.123c-.412 1.569-1.173 3.24-2.285 5.014a25.728 25.728 0 0 1-3.983 4.89 22.861 22.861 0 0 1-5.095 3.713c-1.853.99-3.747 1.486-5.682 1.486-1.77 0-3.109-.516-4.014-1.547-.906-1.032-1.359-2.414-1.359-4.148 0-.907.226-1.959.68-3.156.452-1.196 1.08-2.404 1.884-3.621a27.779 27.779 0 0 1 2.84-3.59 24.42 24.42 0 0 1 3.551-3.156 18.015 18.015 0 0 1 4.045-2.229c1.42-.557 2.85-.836 4.292-.836 1.688 0 2.995.495 3.922 1.486.926.99 1.43 2.27 1.513 3.837.082.95.525 1.826 1.328 2.63.802.805 1.903 1.208 3.304 1.208 1.235 0 2.397-.31 3.489-.929 1.091-.618 2.109-1.423 3.056-2.414l.494.31"/>
    </g>
</svg>
