<svg xmlns="http://www.w3.org/2000/svg" width="149" height="35" viewBox="0 0 149 35">
    <g fill="none" fill-rule="evenodd">
        <path fill="#232E48" d="M135.824 19.124h-7.035v-.666h.665l.667-.191V9.522l-.191-.189h-1.141v-.667h7.416v2.091h-.76v-.95l-1.711-.474h-2.092v3.992h2.664l.664-.19v-.76h.76v2.755h-.76v-.855l-.664-.19h-2.664v3.803c.856.474 1.901.57 3.041.57l1.902-1.9.38.285c-.19.76-.646 1.71-1.14 2.281M147.234 19.124h-6.655v-.666h.666l.665-.191V9.522l-.19-.189h-1.141v-.667h4.28v.667h-.76l-.667.189v8.366c.76.379 1.617.57 2.662.57l1.902-1.9.38.285c-.19.76-.647 1.71-1.142 2.281M47.56 22.946h100.754v-.784H47.56zM53.874 8.357l-1.984 5.476h3.878l-1.894-5.476zm1.666 10.722v-.799h1.255l.342-.342-1.073-3.193h-4.518l-1.14 3.193.343.342h1.255v.8h-4.222v-.8h.798l.684-.228 4.109-11.064V6.53h1.712l4.107 11.522.685.228h.8v.8H55.54zM65.543 9.333v4.562h2.092c.569-.57 1.14-1.331 1.14-2.377 0-1.332-1.14-2.185-3.232-2.185m5.8 9.79c-1.046 0-1.807-.342-2.472-1.33l-2.187-3.232h-1.141v3.707l.19.19h1.046v.666h-4.09v-.666h.667l.665-.19V9.52l-.19-.188h-1.142v-.667h3.424c2.281 0 4.184.667 4.184 2.568 0 1.425-1.14 2.47-2.093 2.946l2.282 3.328c.419.608.762.95 1.332.95h.475v.666h-.95M81.61 10.948v-1.18l-1.33-.341h-1.52v8.84l.19.19h1.235v.667h-4.373v-.666h.76l.665-.19V9.427h-1.522l-1.33.342v1.18h-.761V8.38l.856.286h7.037l.856-.286v2.567zM97.869 19.08v-.8h.684l.799-.227v-5.02H93.42v5.02l.228.228h1.253v.798h-4.905v-.798h.798l.799-.228V7.557l-.228-.228h-1.369v-.798h4.905v.798h-.683l-.798.228v4.564h5.93V7.557l-.227-.228h-1.255v-.798h4.906v.798h-.799l-.798.228v10.496l.228.228h1.37v.798zM109.013 9.141c-1.808.857-2.949 2.663-2.949 4.754 0 3.138 2.188 4.753 5.042 4.753 1.806-.855 2.947-2.662 2.947-4.753 0-3.138-2.187-4.754-5.04-4.754m1.14 10.363c-2.66 0-5.705-1.71-5.705-5.419 0-3.137 3.138-5.797 5.517-5.797 2.66 0 5.705 1.71 5.705 5.416 0 3.139-3.14 5.8-5.516 5.8M125.272 10.948v-1.18l-1.33-.341h-1.523v8.84l.19.19h1.237v.667h-4.376v-.666h.762l.666-.19V9.427h-1.521l-1.331.342v1.18h-.76V8.38l.855.286h7.034l.858-.286v2.567zM65.413 29.993c-.402 0-.735.127-.996.379-.259.253-.39.574-.39.966 0 .381.131.699.39.95.263.253.59.379.982.379s.721-.129.985-.385c.262-.258.395-.58.395-.963 0-.373-.133-.689-.395-.943a1.34 1.34 0 0 0-.971-.383m-.02-.48c.545 0 1 .172 1.362.518.362.345.544.778.544 1.3 0 .518-.184.95-.549 1.29-.366.34-.828.512-1.385.512-.532 0-.975-.172-1.328-.512-.355-.34-.531-.77-.531-1.283 0-.525.177-.962.534-1.307.358-.346.807-.518 1.353-.518M70.76 31.614l-.384-.233c-.24-.147-.412-.292-.513-.435a.814.814 0 0 1-.154-.49c0-.279.098-.504.29-.678.191-.173.443-.26.751-.26.294 0 .566.082.811.248v.575c-.254-.245-.528-.368-.82-.368a.688.688 0 0 0-.408.114.352.352 0 0 0-.158.293.45.45 0 0 0 .117.297c.077.092.203.19.376.291l.387.228c.43.258.644.586.644.982a.894.894 0 0 1-.284.689c-.189.178-.436.266-.738.266-.347 0-.666-.108-.952-.322v-.641c.273.345.588.518.946.518.16 0 .29-.044.396-.132a.413.413 0 0 0 .158-.33c0-.215-.154-.42-.465-.612M75.884 31.597l-.57-1.278-.527 1.278h1.097zm-.743-2.054h.355l1.584 3.55h-.518l-.47-1.047h-1.507l-.44 1.047h-.52l1.516-3.55zM81.012 29.563h.634l-1.532 1.676 1.907 1.854h-.69l-1.804-1.745v1.745h-.506v-3.53h.506v1.614zM85.831 31.597l-.57-1.278-.527 1.278h1.097zm-.743-2.054h.356l1.582 3.55h-.517l-.47-1.047h-1.506l-.441 1.047h-.518l1.514-3.55zM93.034 31.523h-.471v1.12h.497c.276 0 .464-.022.561-.065a.538.538 0 0 0 .33-.494.504.504 0 0 0-.096-.296.557.557 0 0 0-.27-.198c-.116-.044-.299-.067-.551-.067m-.037-1.51h-.434v1.06h.335c.27 0 .462-.05.576-.153a.52.52 0 0 0 .17-.399c0-.34-.215-.508-.647-.508m.256 3.08h-1.196v-3.53h.925c.292 0 .518.039.682.119a.872.872 0 0 1 .374.323.887.887 0 0 1 .128.476c0 .346-.179.595-.538.745.259.049.463.155.615.319a.818.818 0 0 1 .229.585c0 .18-.046.341-.138.482a1.03 1.03 0 0 1-.409.346c-.18.09-.404.135-.672.135M98.494 31.597l-.568-1.278-.529 1.278h1.097zm-.741-2.054h.354l1.583 3.55h-.518l-.469-1.047h-1.506l-.442 1.047h-.518l1.516-3.55zM103.44 29.563h.613l-1.302 1.663v1.867h-.52v-1.867l-1.302-1.663h.61l.945 1.217zM108.684 29.559h2.948v.45h-1.231v3.084h-.507v-3.084h-1.21zM115.101 29.993c-.402 0-.735.127-.993.379-.262.253-.392.574-.392.966 0 .381.132.699.393.95.26.253.586.379.978.379.394 0 .722-.129.985-.385.263-.258.395-.58.395-.963 0-.373-.132-.689-.395-.943a1.339 1.339 0 0 0-.97-.383m-.02-.48c.544 0 .999.172 1.362.518.362.345.544.778.544 1.3 0 .518-.183.95-.55 1.29-.365.34-.826.512-1.384.512-.532 0-.975-.172-1.329-.512s-.531-.77-.531-1.283c0-.525.178-.962.536-1.307.356-.346.806-.518 1.351-.518M123.347 29.563h.503l-1.426 3.545h-.112l-1.154-2.87-1.165 2.87h-.108l-1.422-3.545h.508l.973 2.433.977-2.433h.479l.984 2.433zM125.69 29.563h2.001v.45h-1.496v1.076h1.444v.453h-1.444v1.094h1.544v.45h-2.049zM130.501 29.993h-.152v1.113h.191c.257 0 .433-.022.527-.065a.482.482 0 0 0 .223-.199.573.573 0 0 0 .08-.301.537.537 0 0 0-.089-.302.474.474 0 0 0-.25-.191c-.106-.036-.283-.055-.53-.055m-.656 3.1v-3.53h.883c.358 0 .64.09.85.265a.898.898 0 0 1 .316.719.91.91 0 0 1-.157.532.92.92 0 0 1-.44.336c.113.074.223.175.33.303.108.128.26.351.455.669.124.2.22.352.296.451l.188.255h-.602l-.154-.232-.03-.044-.1-.14-.156-.258-.169-.275a2.58 2.58 0 0 0-.287-.345 1.087 1.087 0 0 0-.235-.186c-.07-.038-.187-.056-.353-.056h-.131v1.536h-.504M16.436 4.924l-5.355 14.77h10.464l-5.109-14.77zm4.493 28.925v-2.153h3.386l.923-.924-2.893-8.616H10.156L7.08 30.772l.924.924h3.385v2.153H0v-2.153h2.153l1.849-.616 11.08-29.85V0h4.615l11.082 31.08 1.845.616h2.155v2.153H20.93z"/>
        <path fill="#A6A8AB" d="M17.93 31.359c0 .766.148 1.368.442 1.812.295.44.736.661 1.327.661.794 0 1.584-.212 2.364-.64.78-.427 1.533-.987 2.256-1.679.721-.692 1.39-1.482 2.01-2.365a19.806 19.806 0 0 0 1.613-2.739c.458-.943.819-1.864 1.083-2.764.266-.898.4-1.714.4-2.452 0-.618-.157-1.141-.467-1.568-.309-.427-.789-.641-1.437-.641-.616 0-1.279.198-1.987.596-.708.398-1.423.921-2.144 1.57-.723.648-1.409 1.4-2.056 2.254-.649.853-1.23 1.739-1.747 2.65-.515.914-.92 1.827-1.215 2.74-.294.915-.442 1.769-.442 2.565m22.235-8.53a8.588 8.588 0 0 1-2.388 1.9c-.884.471-1.754.707-2.607.707-.825 0-1.534-.183-2.122-.553-.59-.367-1.046-.802-1.371-1.302h-.088c-.295 1.119-.84 2.311-1.635 3.58a18.349 18.349 0 0 1-2.852 3.49 16.342 16.342 0 0 1-3.645 2.652c-1.328.707-2.684 1.06-4.067 1.06-1.268 0-2.226-.368-2.875-1.104-.647-.736-.97-1.724-.97-2.962 0-.647.16-1.4.484-2.253a13.2 13.2 0 0 1 1.349-2.585 19.832 19.832 0 0 1 2.033-2.565c.781-.84 1.628-1.591 2.542-2.254a12.997 12.997 0 0 1 2.896-1.59 8.383 8.383 0 0 1 3.072-.596c1.208 0 2.144.353 2.805 1.06.665.707 1.025 1.62 1.084 2.74.06.678.376 1.304.95 1.878.575.575 1.362.862 2.366.862.883 0 1.715-.22 2.496-.663a9.582 9.582 0 0 0 2.189-1.723l.354.221"/>
    </g>
</svg>
