<svg xmlns="http://www.w3.org/2000/svg" width="167" height="73" viewBox="0 0 167 73">
    <path fill="#5CC6D1" fill-rule="evenodd" d="M134.15 45.995c-5.09 3.259-13.65 7.216-28.23 8.383 5.321-11.41 15.273-27.941 27.998-27.941 5.321 0 9.024 3.027 9.024 6.986 0 3.258-2.315 8.147-8.792 12.572m-102.731 0c-6.48-4.425-8.792-9.314-8.792-12.572 0-3.959 3.7-6.986 9.024-6.986 12.492 0 22.441 16.53 27.995 27.94-14.575-1.166-23.138-5.123-28.227-8.382M140.165 3.156c-26.996 7.461-47.663 26.308-57.383 43.07-9.718-16.762-30.518-35.765-57.381-42.837C8.743-.995 0-2.051 0 7.065 0 33.604 23.784 73 81.856 73c58.077 0 92.784-46.325 83.71-65.703-5.1-10.893-14.401-7.182-25.4-4.14"/>
</svg>
