<svg xmlns="http://www.w3.org/2000/svg" width="36" height="36" viewBox="0 0 36 36">
    <g fill="none" fill-rule="evenodd">
        <rect width="36" height="36" fill="#232E48" rx="18"/>
        <path fill="#FFF" d="M26 13.42a6.227 6.227 0 0 1-1.767.477 3.055 3.055 0 0 0 1.354-1.675 6.248 6.248 0 0 1-1.955.735A3.096 3.096 0 0 0 21.385 12c-1.7 0-3.077 1.357-3.077 3.03 0 .236.027.468.08.69a8.783 8.783 0 0 1-6.343-3.166 2.975 2.975 0 0 0-.417 1.523c0 1.052.543 1.98 1.368 2.522a3.098 3.098 0 0 1-1.394-.38v.04c0 1.466 1.061 2.69 2.469 2.969a3.1 3.1 0 0 1-1.39.053 3.076 3.076 0 0 0 2.876 2.103 6.234 6.234 0 0 1-3.823 1.297c-.249 0-.494-.014-.734-.042A8.807 8.807 0 0 0 15.717 24c5.66 0 8.757-4.617 8.757-8.62 0-.131-.004-.261-.01-.392A6.191 6.191 0 0 0 26 13.421z"/>
    </g>
</svg>
